<svg height="512" viewBox="0 0 64 64" width="512" xmlns="http://www.w3.org/2000/svg" xmlns:xlink="http://www.w3.org/1999/xlink"><linearGradient id="New_Gradient_Swatch_1" gradientUnits="userSpaceOnUse" x1="32" x2="32" y1="1.546" y2="64.133"><stop offset="0" stop-color="#fff33b"/><stop offset=".014" stop-color="#fee72e"/><stop offset=".042" stop-color="#fed51b"/><stop offset=".07" stop-color="#fdca10"/><stop offset=".1" stop-color="#fdc70c"/><stop offset=".4" stop-color="#f3903f"/><stop offset=".8" stop-color="#ed683c"/><stop offset="1" stop-color="#e93e3a"/></linearGradient><linearGradient id="New_Gradient_Swatch_1-2" x1="17" x2="17" xlink:href="#New_Gradient_Swatch_1" y1="1.546" y2="64.133"/><linearGradient id="New_Gradient_Swatch_1-3" x1="14" x2="14" xlink:href="#New_Gradient_Swatch_1" y1="1.546" y2="64.133"/><linearGradient id="New_Gradient_Swatch_1-4" x1="20" x2="20" xlink:href="#New_Gradient_Swatch_1" y1="1.546" y2="64.133"/><linearGradient id="New_Gradient_Swatch_1-7" x1="16.5" x2="16.5" xlink:href="#New_Gradient_Swatch_1" y1="1.546" y2="64.133"/><g id="Globe-2" data-name="Globe"><path d="m62 32a17.014 17.014 0 0 0 -11-15.886v-2.114h7a1 1 0 0 0 1-1v-3.142a4 4 0 1 0 -2 0v2.142h-7a1 1 0 0 0 -1 1v2.5a16.941 16.941 0 0 0 -3-.444v-5.198a4 4 0 1 0 -2 0v5.193a16.865 16.865 0 0 0 -8 2.549v-10.6a5.006 5.006 0 0 0 -5-5h-24a5.006 5.006 0 0 0 -5 5v50a5.006 5.006 0 0 0 5 5h24a5.006 5.006 0 0 0 5-5v-10.6a16.865 16.865 0 0 0 8 2.553v5.193a4 4 0 1 0 2 0v-5.197a16.941 16.941 0 0 0 3-.444v2.495a1 1 0 0 0 1 1h7v2.142a4 4 0 1 0 2 0v-3.142a1 1 0 0 0 -1-1h-7v-2.114a17.014 17.014 0 0 0 11-15.886zm-6-26a2 2 0 1 1 2 2 2 2 0 0 1 -2-2zm4 52a2 2 0 1 1 -2-2 2 2 0 0 1 2 2zm-6.8-18.9a30.363 30.363 0 0 0 .774-6.1h5.975a14.927 14.927 0 0 1 -3.395 8.555 16.923 16.923 0 0 0 -3.354-2.455zm-1.224-6.1a28.778 28.778 0 0 1 -.64 5.225 17 17 0 0 0 -12.672 0 28.778 28.778 0 0 1 -.64-5.225zm-13.952-2a28.869 28.869 0 0 1 .639-5.225 17 17 0 0 0 12.674 0 28.869 28.869 0 0 1 .639 5.225zm15.95 0a30.363 30.363 0 0 0 -.775-6.095 16.923 16.923 0 0 0 3.355-2.46 14.927 14.927 0 0 1 3.395 8.555zm-1.339-8.091a16.566 16.566 0 0 0 -2.537-5 14.989 14.989 0 0 1 5.072 3.095 14.954 14.954 0 0 1 -2.535 1.905zm-1.806.922a15.117 15.117 0 0 1 -11.658 0c1.267-4.078 3.429-6.831 5.829-6.831s4.562 2.753 5.829 6.831zm-13.464-.922a14.915 14.915 0 0 1 -2.535-1.9 14.989 14.989 0 0 1 5.07-3.098 16.566 16.566 0 0 0 -2.535 4.998zm-3.919-.464a16.923 16.923 0 0 0 3.355 2.46 30.363 30.363 0 0 0 -.775 6.095h-5.975a14.927 14.927 0 0 1 3.395-8.555zm2.58 10.555a30.363 30.363 0 0 0 .774 6.1 16.923 16.923 0 0 0 -3.355 2.46 14.927 14.927 0 0 1 -3.394-8.56zm1.339 8.091a16.566 16.566 0 0 0 2.537 5 14.989 14.989 0 0 1 -5.072-3.095 14.915 14.915 0 0 1 2.535-1.905zm1.806-.922a15.117 15.117 0 0 1 11.658 0c-1.267 4.078-3.429 6.831-5.829 6.831s-4.562-2.753-5.829-6.831zm13.464.922a14.954 14.954 0 0 1 2.535 1.9 14.989 14.989 0 0 1 -5.07 3.098 16.566 16.566 0 0 0 2.535-4.998zm-9.635-35.091a2 2 0 1 1 2 2 2 2 0 0 1 -2-2zm-17.618-2-.724 1.447a.993.993 0 0 1 -.894.553h-9.528a.993.993 0 0 1 -.894-.553l-.724-1.447zm8.618 53a3 3 0 0 1 -3 3h-24a3 3 0 0 1 -3-3v-50a3 3 0 0 1 3-3h3.382l1.171 2.342a2.985 2.985 0 0 0 2.683 1.658h9.528a2.985 2.985 0 0 0 2.683-1.658l1.171-2.342h3.382a3 3 0 0 1 3 3v12.062a16.949 16.949 0 0 0 0 25.876zm13 1a2 2 0 1 1 -2-2 2 2 0 0 1 2 2z" fill="url(#New_Gradient_Swatch_1)"/><path d="m23 14h-12a3 3 0 0 0 -3 3v8a3 3 0 0 0 3 3h5v5a1 1 0 0 0 .617.924.987.987 0 0 0 .383.076 1 1 0 0 0 .707-.293l5.74-5.74a3 3 0 0 0 2.553-2.967v-8a3 3 0 0 0 -3-3zm1 11a1 1 0 0 1 -1 1 1 1 0 0 0 -.707.293l-4.293 4.293v-3.586a1 1 0 0 0 -1-1h-6a1 1 0 0 1 -1-1v-8a1 1 0 0 1 1-1h12a1 1 0 0 1 1 1z" fill="url(#New_Gradient_Swatch_1-2)"/><path d="m12 18h4v2h-4z" fill="url(#New_Gradient_Swatch_1-3)"/><path d="m18 22h4v2h-4z" fill="url(#New_Gradient_Swatch_1-4)"/><path d="m12 22h4v2h-4z" fill="url(#New_Gradient_Swatch_1-3)"/><path d="m18 18h4v2h-4z" fill="url(#New_Gradient_Swatch_1-4)"/><path d="m21 38a1.009 1.009 0 0 0 -.352.063l-7.83 2.937h-1.818a3 3 0 0 0 0 6h1v7a2 2 0 0 0 2 2h1.728a2 2 0 0 0 1.943-2.473l-.62-2.537a.975.975 0 0 1 -.051-.314v-2.108l3.648 1.369a1.009 1.009 0 0 0 .352.063 4 4 0 0 0 4-4v-4a4 4 0 0 0 -4-4zm-7 4.693 6-2.25v7.114l-6-2.25zm-4 1.307a1 1 0 0 1 1-1h1v2h-1a1 1 0 0 1 -1-1zm5.131 7.544.6 2.456h-1.731v-6.557l1 .375v2.858a2.768 2.768 0 0 0 .131.868zm7.869-5.544a2 2 0 0 1 -1 1.723v-7.446a2 2 0 0 1 1 1.723z" fill="url(#New_Gradient_Swatch_1-7)"/></g></svg>