<?xml version="1.0"?>
<svg xmlns="http://www.w3.org/2000/svg" height="512px" viewBox="0 0 60 60" width="512px"><g><g id="056---Search-Female-User"><path id="Shape" d="m43.1 7.4c-9.4885127-9.48905849-24.7422668-9.89743875-34.72491385-.92967077-9.98264705 8.96776797-11.20574297 24.17789037-2.78435723 34.62558717 8.42138578 10.4476967 23.54439308 12.4820116 34.42727108 4.6310836l2.228 2.227c-.050749.8534149.2650183 1.6879427.868 2.294l8.58 8.579c1.5714902 1.5678401 4.1155098 1.5678401 5.687 0l1.442-1.442c1.5689412-1.5710346 1.5689412-4.1159654 0-5.687l-8.579-8.58c-.6060573-.6029817-1.4405851-.918749-2.294-.868l-2.227-2.228c7.2538231-10.0430959 6.1423053-23.8669359-2.623-32.622zm-34.291 34.285c-7.84221805-7.8423243-9.05251695-20.1322705-2.8907159-29.3536936 6.161801-9.22142298 17.9795229-12.80598051 28.2258179-8.56146976 10.2462951 4.24451076 16.0673748 15.13591256 13.9032495 26.01336616-2.1641252 10.8774536-11.7107052 18.7113805-22.8013515 18.7107972-6.1645508-.0031764-12.0760169-2.4519914-16.437-6.809zm47.171 9.994-4.3 4.3-5.015-5.015 4.3-4.3zm1.428 4.287-1.442 1.442c-.3825115.3797526-.9004053.5916994-1.4394046.5890729s-1.054803-.2196105-1.4335954-.6030729l4.3-4.3c.7965835.7892075.8032965 2.0745149.015 2.872zm-7.857-10.716-4.3 4.3-.723-.722c-.3970191-.3990747-.3970191-1.0439253 0-1.443l2.859-2.859c.3986208-.3981177 1.0443792-.3981177 1.443 0zm-3.569-2.145-2.877 2.877-1.505-1.507c1.0391873-.8739166 2.0010834-1.8358127 2.875-2.875z" data-original="#000000" class="active-path" data-old_color="#000000" fill="#EB7D16"/><path id="Shape" d="m40.241 10.252c-7.148502-7.15880915-18.3585814-8.27074873-26.7741305-2.65575421-8.41554906 5.61499451-11.69250765 16.39292711-7.82668114 25.74199201 3.8658265 9.349065 13.79765394 14.6651813 23.72115624 12.6970013 9.9235022-1.96818 17.0745951-10.672441 17.0796554-20.7892391.0001805-5.6217745-2.2295324-11.0140834-6.2-14.994zm-24.866 31.448c3.231-.759 4.5-.29 7.78-3.067.6360546-.5277525 1.0103435-1.3066385 1.025-2.133.0204069-1.293156-.2668186-2.5726463-.838-3.733-.0816709-.1643437-.2073297-.3028107-.363-.4-1.3656103-.7868118-2.3830314-2.0610889-2.848-3.567-.1237033-.4303995-.5184679-.7260809-.9662857-.7237546-.4478179.0023264-.8394893.3020931-.9587143.7337546-.668 2.4-1.641 3.241-3.115 3.709 2.884-5.229.9-9.617 1.664-14.091.87-5.036 3.534-8.43 8.585-8.43 1.533 0 3.748.446 4.6 1.6.215.381.377 1.046 1.131 1.062 3.292.067 4.2 4.909 2.124 7.062-.3535169.2779824-.4779822.7577573-.304185 1.1725378.1737973.4147806.6030991.6625215 1.049185.6054622.1154911.0089846.228025.0409429.331.094.3113228.1501639.5091426.4653542.509.811v1.91c-.0028325.2474592-.1051334.4833667-.2838469.6545554s-.4188009.2632532-.6661531.2554446h-.67c-.2839907.0000429-.554569.1208319-.7442113.3322238-.1896422.211392-.2804597.4934466-.2497887.7757762.0029859.0539587.0029859.1080413 0 .162 0 4.7-3.127 5.518-3.512 6.278-.5689799 1.1588437-.854812 2.4361771-.834 3.727.0142105.827033.3885287 1.6067105 1.025 2.135 2.8 2.365 4.049 2.351 6.658 2.836-6.1250603 3.8802939-13.9162429 3.9689357-20.128.229zm22.263-1.8c-3.92-1.05-4.5-.261-7.5-2.8-.1907655-.1536975-.3059421-.3822282-.316-.627-.014262-.8852882.1602802-1.7634535.512-2.576 2.3126602-1.4545404 3.7450939-3.9688987 3.817-6.7 1.4835252-.1526898 2.6154518-1.3956993 2.629-2.887v-1.91c-.0005178-.979116-.4950632-1.8918625-1.315-2.427 1.922-3.477.419-8.715-3.743-9.266-.99-1.889-4.015-2.707-6.382-2.707-6.067 0-9.507 4.021-10.556 10.09-.915 5.316 1.613 10.045-2.6 15.165-.2521539.3070041-.2986592.7341572-.1184785 1.0882306.1801807.3540735.5528707.5679068.9494785.5447694 2.68-.155 4.927-.959 6.242-3.312.644285.9255549 1.4624846 1.7169227 2.409 2.33.3510905.8123592.5252818 1.6901339.511 2.575-.010625.2440635-.1257466.4717566-.316.625-1.2998844 1.2762516-3.0008946 2.0640507-4.815 2.23-1.2822969.1945196-2.5448809.5020506-3.773.919-6.34120224-5.0551591-8.82249748-13.5493362-6.19962004-21.2230571 2.62287743-7.6737209 9.78426374-12.87202997 17.89302354-12.98819273s15.4161145 4.87487303 18.2577316 12.47031183c2.8416172 7.5954389.6046584 16.1572077-5.5891351 21.391938z" data-original="#000000" class="active-path" data-old_color="#000000" fill="#EB7D16"/></g></g> </svg>
